<?xml version="1.0" encoding="UTF-8" standalone="no"?>
<!DOCTYPE svg PUBLIC "-//W3C//DTD SVG 1.1//EN"
 "http://www.w3.org/Graphics/SVG/1.1/DTD/svg11.dtd">
<!-- Generated by graphviz version 2.40.1 (20161225.0304)
 -->
<!-- Title: G Pages: 1 -->
<svg width="366pt" height="388pt"
 viewBox="0.00 0.00 365.62 388.00" xmlns="http://www.w3.org/2000/svg" xmlns:xlink="http://www.w3.org/1999/xlink">
<g id="graph0" class="graph" transform="scale(1 1) rotate(0) translate(4 384)">
<title>G</title>
<polygon fill="#ffffff" stroke="transparent" points="-4,4 -4,-384 361.617,-384 361.617,4 -4,4"/>
<!-- A0 -->
<g id="node1" class="node">
<title>A0</title>
<polygon fill="none" stroke="#000000" points="211.6806,-380 149.8764,-380 149.8764,-344 211.6806,-344 211.6806,-380"/>
<text text-anchor="middle" x="180.7785" y="-359" font-family="Helvetica,sans-Serif" font-size="10.00" fill="#000000">Internet</text>
</g>
<!-- A1 -->
<g id="node2" class="node">
<title>A1</title>
<polygon fill="none" stroke="#000000" points="226.6372,-294 134.9198,-294 134.9198,-258 226.6372,-258 226.6372,-294"/>
<text text-anchor="middle" x="180.7785" y="-273" font-family="Helvetica,sans-Serif" font-size="10.00" fill="#000000">Load balancer</text>
</g>
<!-- A0&#45;&gt;A1 -->
<g id="edge1" class="edge">
<title>A0&#45;&gt;A1</title>
<path fill="none" stroke="#000000" d="M180.7785,-343.7616C180.7785,-332.3597 180.7785,-317.4342 180.7785,-304.494"/>
<polygon fill="#000000" stroke="#000000" points="180.7785,-294.2121 185.2786,-304.2121 180.7785,-299.2121 180.7786,-304.2121 180.7786,-304.2121 180.7786,-304.2121 180.7785,-299.2121 176.2786,-304.2121 180.7785,-294.2121 180.7785,-294.2121"/>
</g>
<!-- A2 -->
<g id="node3" class="node">
<title>A2</title>
<polygon fill="none" stroke="#000000" points="110.5148,-208 5.0422,-208 5.0422,-172 110.5148,-172 110.5148,-208"/>
<text text-anchor="middle" x="57.7785" y="-187" font-family="Helvetica,sans-Serif" font-size="10.00" fill="#000000">Nginx Gunicorn 1</text>
</g>
<!-- A1&#45;&gt;A2 -->
<g id="edge2" class="edge">
<title>A1&#45;&gt;A2</title>
<path fill="none" stroke="#000000" d="M154.9937,-257.9716C136.6253,-245.1286 111.752,-227.7376 91.7636,-213.7619"/>
<polygon fill="#000000" stroke="#000000" points="83.5294,-208.0047 94.3034,-210.0469 87.6271,-210.8698 91.7249,-213.7349 91.7249,-213.7349 91.7249,-213.7349 87.6271,-210.8698 89.1463,-217.4228 83.5294,-208.0047 83.5294,-208.0047"/>
</g>
<!-- A3 -->
<g id="node4" class="node">
<title>A3</title>
<polygon fill="none" stroke="#000000" points="233.5148,-208 128.0422,-208 128.0422,-172 233.5148,-172 233.5148,-208"/>
<text text-anchor="middle" x="180.7785" y="-187" font-family="Helvetica,sans-Serif" font-size="10.00" fill="#000000">Nginx Gunicorn 2</text>
</g>
<!-- A1&#45;&gt;A3 -->
<g id="edge3" class="edge">
<title>A1&#45;&gt;A3</title>
<path fill="none" stroke="#000000" d="M180.7785,-257.7616C180.7785,-246.3597 180.7785,-231.4342 180.7785,-218.494"/>
<polygon fill="#000000" stroke="#000000" points="180.7785,-208.2121 185.2786,-218.2121 180.7785,-213.2121 180.7786,-218.2121 180.7786,-218.2121 180.7786,-218.2121 180.7785,-213.2121 176.2786,-218.2121 180.7785,-208.2121 180.7785,-208.2121"/>
</g>
<!-- A4 -->
<g id="node5" class="node">
<title>A4</title>
<polygon fill="none" stroke="#000000" points="356.5148,-208 251.0422,-208 251.0422,-172 356.5148,-172 356.5148,-208"/>
<text text-anchor="middle" x="303.7785" y="-187" font-family="Helvetica,sans-Serif" font-size="10.00" fill="#000000">Nginx Gunicorn 3</text>
</g>
<!-- A1&#45;&gt;A4 -->
<g id="edge4" class="edge">
<title>A1&#45;&gt;A4</title>
<path fill="none" stroke="#000000" d="M206.5633,-257.9716C224.9317,-245.1286 249.805,-227.7376 269.7934,-213.7619"/>
<polygon fill="#000000" stroke="#000000" points="278.0276,-208.0047 272.4107,-217.4228 273.9299,-210.8698 269.8321,-213.7349 269.8321,-213.7349 269.8321,-213.7349 273.9299,-210.8698 267.2536,-210.0469 278.0276,-208.0047 278.0276,-208.0047"/>
</g>
<!-- A5 -->
<g id="node6" class="node">
<title>A5</title>
<polygon fill="none" stroke="#000000" points="110.5019,-122 45.0551,-122 45.0551,-86 110.5019,-86 110.5019,-122"/>
<text text-anchor="middle" x="77.7785" y="-101" font-family="Helvetica,sans-Serif" font-size="10.00" fill="#000000">Celery 1</text>
</g>
<!-- A2&#45;&gt;A5 -->
<g id="edge5" class="edge">
<title>A2&#45;&gt;A5</title>
<path fill="none" stroke="#000000" d="M62.02,-171.7616C64.6981,-160.2456 68.2121,-145.1353 71.2421,-132.1064"/>
<polygon fill="#000000" stroke="#000000" points="73.5431,-122.2121 75.661,-132.9715 72.4105,-127.0821 71.2779,-131.9522 71.2779,-131.9522 71.2779,-131.9522 72.4105,-127.0821 66.8949,-130.9328 73.5431,-122.2121 73.5431,-122.2121"/>
</g>
<!-- A6 -->
<g id="node7" class="node">
<title>A6</title>
<polygon fill="none" stroke="#000000" points="213.5019,-122 148.0551,-122 148.0551,-86 213.5019,-86 213.5019,-122"/>
<text text-anchor="middle" x="180.7785" y="-101" font-family="Helvetica,sans-Serif" font-size="10.00" fill="#000000">Celery 2</text>
</g>
<!-- A3&#45;&gt;A6 -->
<g id="edge6" class="edge">
<title>A3&#45;&gt;A6</title>
<path fill="none" stroke="#000000" d="M180.7785,-171.7616C180.7785,-160.3597 180.7785,-145.4342 180.7785,-132.494"/>
<polygon fill="#000000" stroke="#000000" points="180.7785,-122.2121 185.2786,-132.2121 180.7785,-127.2121 180.7786,-132.2121 180.7786,-132.2121 180.7786,-132.2121 180.7785,-127.2121 176.2786,-132.2121 180.7785,-122.2121 180.7785,-122.2121"/>
</g>
<!-- A7 -->
<g id="node8" class="node">
<title>A7</title>
<polygon fill="none" stroke="#000000" points="316.5019,-122 251.0551,-122 251.0551,-86 316.5019,-86 316.5019,-122"/>
<text text-anchor="middle" x="283.7785" y="-101" font-family="Helvetica,sans-Serif" font-size="10.00" fill="#000000">Celery 3</text>
</g>
<!-- A4&#45;&gt;A7 -->
<g id="edge7" class="edge">
<title>A4&#45;&gt;A7</title>
<path fill="none" stroke="#000000" d="M299.537,-171.7616C296.8589,-160.2456 293.3449,-145.1353 290.3149,-132.1064"/>
<polygon fill="#000000" stroke="#000000" points="288.0139,-122.2121 294.6621,-130.9328 289.1465,-127.0821 290.2791,-131.9522 290.2791,-131.9522 290.2791,-131.9522 289.1465,-127.0821 285.896,-132.9715 288.0139,-122.2121 288.0139,-122.2121"/>
</g>
<!-- A8 -->
<g id="node9" class="node">
<title>A8</title>
<polygon fill="none" stroke="#000000" points="103.3364,-36 .2206,-36 .2206,0 103.3364,0 103.3364,-36"/>
<text text-anchor="middle" x="51.7785" y="-15" font-family="Helvetica,sans-Serif" font-size="10.00" fill="#000000">Postgres primary</text>
</g>
<!-- A5&#45;&gt;A8 -->
<g id="edge8" class="edge">
<title>A5&#45;&gt;A8</title>
<path fill="none" stroke="#000000" d="M72.2646,-85.7616C68.783,-74.2456 64.2148,-59.1353 60.2758,-46.1064"/>
<polygon fill="#000000" stroke="#000000" points="57.2845,-36.2121 64.4859,-44.4819 58.7315,-40.9982 60.1784,-45.7842 60.1784,-45.7842 60.1784,-45.7842 58.7315,-40.9982 55.871,-47.0865 57.2845,-36.2121 57.2845,-36.2121"/>
</g>
<!-- A9 -->
<g id="node10" class="node">
<title>A9</title>
<polygon fill="none" stroke="#000000" points="239.7925,-36 121.7645,-36 121.7645,0 239.7925,0 239.7925,-36"/>
<text text-anchor="middle" x="180.7785" y="-15" font-family="Helvetica,sans-Serif" font-size="10.00" fill="#000000">Postgres Rabbit MQ</text>
</g>
<!-- A5&#45;&gt;A9 -->
<g id="edge9" class="edge">
<title>A5&#45;&gt;A9</title>
<path fill="none" stroke="#000000" d="M99.6222,-85.7616C114.6436,-73.2195 134.7712,-56.4138 151.2235,-42.677"/>
<polygon fill="#000000" stroke="#000000" points="158.9663,-36.2121 154.1744,-46.0756 155.1283,-39.4167 151.2902,-42.6213 151.2902,-42.6213 151.2902,-42.6213 155.1283,-39.4167 148.4061,-39.167 158.9663,-36.2121 158.9663,-36.2121"/>
</g>
<!-- A10 -->
<g id="node11" class="node">
<title>A10</title>
<polygon fill="none" stroke="#000000" points="357.456,-36 258.101,-36 258.101,0 357.456,0 357.456,-36"/>
<text text-anchor="middle" x="307.7785" y="-15" font-family="Helvetica,sans-Serif" font-size="10.00" fill="#000000">Postgres replica</text>
</g>
<!-- A5&#45;&gt;A10 -->
<g id="edge10" class="edge">
<title>A5&#45;&gt;A10</title>
<path fill="none" stroke="#000000" d="M110.7319,-91.6783C146.9528,-78.1348 205.8321,-56.1191 249.811,-39.6748"/>
<polygon fill="#000000" stroke="#000000" points="259.2364,-36.1505 251.4458,-43.8679 254.5531,-37.9017 249.8697,-39.6529 249.8697,-39.6529 249.8697,-39.6529 254.5531,-37.9017 248.2937,-35.4379 259.2364,-36.1505 259.2364,-36.1505"/>
</g>
<!-- A6&#45;&gt;A8 -->
<g id="edge11" class="edge">
<title>A6&#45;&gt;A8</title>
<path fill="none" stroke="#000000" d="M153.7359,-85.9716C134.3855,-73.0713 108.1519,-55.5822 87.1409,-41.575"/>
<polygon fill="#000000" stroke="#000000" points="78.7855,-36.0047 89.6022,-37.8075 82.9458,-38.7782 87.106,-41.5517 87.106,-41.5517 87.106,-41.5517 82.9458,-38.7782 84.6099,-45.296 78.7855,-36.0047 78.7855,-36.0047"/>
</g>
<!-- A6&#45;&gt;A9 -->
<g id="edge12" class="edge">
<title>A6&#45;&gt;A9</title>
<path fill="none" stroke="#000000" d="M180.7785,-85.7616C180.7785,-74.3597 180.7785,-59.4342 180.7785,-46.494"/>
<polygon fill="#000000" stroke="#000000" points="180.7785,-36.2121 185.2786,-46.2121 180.7785,-41.2121 180.7786,-46.2121 180.7786,-46.2121 180.7786,-46.2121 180.7785,-41.2121 176.2786,-46.2121 180.7785,-36.2121 180.7785,-36.2121"/>
</g>
<!-- A6&#45;&gt;A10 -->
<g id="edge13" class="edge">
<title>A6&#45;&gt;A10</title>
<path fill="none" stroke="#000000" d="M207.4019,-85.9716C226.3676,-73.1286 252.0497,-55.7376 272.6882,-41.7619"/>
<polygon fill="#000000" stroke="#000000" points="281.1902,-36.0047 275.4332,-45.3378 277.0501,-38.8082 272.91,-41.6118 272.91,-41.6118 272.91,-41.6118 277.0501,-38.8082 270.3868,-37.8857 281.1902,-36.0047 281.1902,-36.0047"/>
</g>
<!-- A7&#45;&gt;A8 -->
<g id="edge14" class="edge">
<title>A7&#45;&gt;A8</title>
<path fill="none" stroke="#000000" d="M251.0306,-91.8607C214.4918,-78.3161 154.6606,-56.1373 110.0818,-39.6124"/>
<polygon fill="#000000" stroke="#000000" points="100.5304,-36.0718 111.471,-35.3282 105.2187,-37.8097 109.9069,-39.5477 109.9069,-39.5477 109.9069,-39.5477 105.2187,-37.8097 108.3428,-43.7671 100.5304,-36.0718 100.5304,-36.0718"/>
</g>
<!-- A7&#45;&gt;A9 -->
<g id="edge15" class="edge">
<title>A7&#45;&gt;A9</title>
<path fill="none" stroke="#000000" d="M261.9348,-85.7616C246.9134,-73.2195 226.7858,-56.4138 210.3335,-42.677"/>
<polygon fill="#000000" stroke="#000000" points="202.5907,-36.2121 213.1509,-39.167 206.4287,-39.4167 210.2668,-42.6213 210.2668,-42.6213 210.2668,-42.6213 206.4287,-39.4167 207.3826,-46.0756 202.5907,-36.2121 202.5907,-36.2121"/>
</g>
<!-- A7&#45;&gt;A10 -->
<g id="edge16" class="edge">
<title>A7&#45;&gt;A10</title>
<path fill="none" stroke="#000000" d="M288.8683,-85.7616C292.082,-74.2456 296.2989,-59.1353 299.9349,-46.1064"/>
<polygon fill="#000000" stroke="#000000" points="302.6961,-36.2121 304.3424,-47.0537 301.352,-41.0281 300.008,-45.8441 300.008,-45.8441 300.008,-45.8441 301.352,-41.0281 295.6736,-44.6344 302.6961,-36.2121 302.6961,-36.2121"/>
</g>
</g>
</svg>
